<svg width="87" height="118" viewBox="0 0 87 118" fill="none" xmlns="http://www.w3.org/2000/svg">
<path d="M66.418 36.1689C67.0352 33.8235 69.5042 32.3418 71.8496 32.959C74.195 33.5762 75.6758 35.9218 75.0586 38.3906L73.3311 45.0566C71.4794 52.4632 65.0597 57.8945 57.4062 58.5117C56.7892 58.5118 56.0489 58.6357 55.3086 58.6357L55.1846 79.25L54.6914 112.457C54.6912 115.049 52.4685 117.271 49.7529 117.271H49.6299C46.9142 117.147 44.8156 114.926 44.8154 112.21L45.3096 80.9785H43.2109L33.9521 113.567C33.3349 115.789 31.3602 117.147 29.2617 117.147C28.7679 117.147 28.3971 117.024 27.9033 116.9C25.1879 116.16 23.7066 113.444 24.4473 110.852L33.7061 78.3867L33.8291 62.3389C32.2245 63.8201 30.9903 65.7949 30.373 68.0166L27.5332 78.5098C26.916 80.3614 25.1879 81.7197 23.2129 81.7197C22.8426 81.7197 22.4719 81.7191 22.1016 81.5957C19.7564 80.9783 18.3984 78.5094 19.0156 76.1641L21.8555 65.6719C24.3243 57.0309 31.9775 50.735 41.1123 50.2412C42.2232 50.1178 43.4575 50.1182 44.5684 50.1182C49.0123 50.1182 53.0862 49.8709 56.666 49.624C60.4926 49.2537 63.7018 46.5381 64.6895 42.835L66.418 36.1689ZM44.6797 27.6514C50.1338 27.6514 54.5557 32.0723 54.5557 37.5264C54.5556 42.9804 50.1337 47.4014 44.6797 47.4014C39.2258 47.4011 34.8047 42.9803 34.8047 37.5264C34.8047 32.0725 39.2258 27.6516 44.6797 27.6514ZM82.959 26.293C83.6997 25.3056 85.1809 25.3059 86.0449 26.1699C87.0321 27.034 87.032 28.3919 86.168 29.2559L82.835 32.7119C82.3412 33.2056 81.8476 33.4531 81.2305 33.4531C80.7368 33.4531 80.1194 33.2061 79.749 32.8359C78.7615 32.0953 78.7619 30.6131 79.626 29.749L82.959 26.293ZM15.5537 0C24.1947 0 31.1074 7.03619 31.1074 15.5537C31.1074 18.5163 30.3667 21.1087 29.0088 23.4541L31.8486 29.626C32.5893 30.9838 31.1079 32.3418 29.75 31.7246L23.4541 29.0088C21.1087 30.3667 18.3929 31.1074 15.5537 31.1074C6.91275 31.1074 0 24.0712 0 15.5537C7.11186e-05 6.91279 7.03623 7.02443e-05 15.5537 0ZM63.0723 20.6152C64.1833 20.2449 65.4178 20.8622 65.7881 22.0967L67.1465 26.7871C67.5167 27.898 66.8993 29.1325 65.665 29.5029C65.4183 29.6263 65.2945 29.626 65.0479 29.626C64.0603 29.626 63.1961 29.009 62.9492 28.0215L61.5908 23.3311C61.2205 22.2201 61.838 20.9856 63.0723 20.6152ZM72.5879 21.9727C72.9582 20.8617 74.0694 20.1214 75.3037 20.3682C76.5381 20.6151 77.2789 21.8496 76.7852 23.084L75.6748 27.7744C75.4279 28.7618 74.5636 29.5027 73.5762 29.5029C73.4527 29.5029 73.2055 29.3789 73.082 29.3789C71.9711 29.0085 71.2307 27.8975 71.4775 26.6631L72.5879 21.9727ZM6.91309 12.8379C5.43181 12.8379 4.19734 14.0725 4.19727 15.5537C4.19727 17.035 5.43177 18.2695 6.91309 18.2695C8.39428 18.2694 9.62891 17.0349 9.62891 15.5537C9.62883 14.0725 8.39424 12.838 6.91309 12.8379ZM15.6777 12.8379C14.1965 12.8379 12.962 14.0725 12.9619 15.5537C12.9619 17.035 14.1964 18.2695 15.6777 18.2695C17.1589 18.2693 18.3926 17.0349 18.3926 15.5537C18.3925 14.0726 17.1588 12.8381 15.6777 12.8379ZM24.3184 12.8379C22.8371 12.8379 21.6026 14.0725 21.6025 15.5537C21.6025 17.035 22.837 18.2695 24.3184 18.2695C25.7997 18.2695 27.0342 17.035 27.0342 15.5537C27.0341 14.0725 25.7996 12.8379 24.3184 12.8379Z" fill="black"/>
</svg>
