<svg width="64" height="67" viewBox="0 0 64 67" fill="none" xmlns="http://www.w3.org/2000/svg">
<path d="M59.9608 4.19456C60.5117 3.63822 61.2517 3.42818 61.9784 3.56468L62.1239 3.59593L62.1542 3.60374L62.1835 3.61351C62.584 3.74843 62.9023 4.04741 63.1122 4.35374C63.3277 4.66839 63.4899 5.07997 63.4901 5.52757V64.2102C63.4899 64.7745 63.3004 65.3082 62.9091 65.7033C62.517 66.0991 61.9849 66.2931 61.4198 66.2932H10.7079C9.93786 66.293 9.12743 65.8999 8.72058 65.0783L8.68152 65.0002L8.66101 64.9153C8.5149 64.3244 8.44605 63.4682 9.08777 62.7864L59.9257 4.23265L59.9432 4.21312L59.9608 4.19456ZM9.42566 64.6721C9.31182 64.1766 9.32454 63.6846 9.69226 63.3127L60.5311 4.75901C60.9122 4.37425 61.4206 4.24613 61.9286 4.37425C61.9602 4.3849 61.9919 4.39854 62.0233 4.41429C62.0149 4.41007 62.0073 4.40448 61.9989 4.40062L61.9276 4.3723C61.4197 4.2442 60.9112 4.37242 60.5302 4.75706L9.69129 63.3108C9.32318 63.683 9.31142 64.176 9.42566 64.6721ZM60.1483 8.9973V62.926H13.5077L13.5057 62.928H60.1493V8.99632L60.1483 8.9973ZM15.2538 62.1262H59.3485V11.1418L15.2538 62.1262ZM48.3993 35.3967C48.9866 34.8037 49.7887 34.6031 50.5614 34.7981L50.5917 34.8059L50.621 34.8157C51.0214 34.9505 51.3398 35.2487 51.5497 35.5549C51.7653 35.8696 51.9283 36.2819 51.9286 36.7297V52.5237C51.9286 53.0882 51.7388 53.6224 51.3475 54.0178C50.9555 54.4138 50.4227 54.6076 49.8573 54.6076H36.2577C35.8621 54.6076 35.4808 54.505 35.1444 54.2785C34.8133 54.0555 34.5711 53.7429 34.3973 53.3918C33.9821 52.552 34.2122 51.7321 34.5731 51.1848L34.6034 51.1389L34.6395 51.0979L48.3661 35.4319L48.3827 35.4133L48.3993 35.3967ZM44.1991 0.26292C44.5824 0.0132609 45.0282 -0.0337757 45.4042 0.0197563C45.7609 0.0705818 46.1209 0.217028 46.4227 0.45335L46.5487 0.559795L46.66 0.670147C47.1892 1.22875 47.4105 2.02554 47.0673 2.83812L47.0692 2.83909L41.5907 16.844L41.537 16.9797L41.4647 17.0598C41.4631 17.0634 41.461 17.0678 41.4589 17.0725C41.4306 17.1367 41.3598 17.3041 41.2108 17.4729L41.2118 17.4739L12.5389 50.4075C9.94141 53.5647 5.36776 53.7492 2.40515 51.1535C-0.591669 48.5275 -0.777452 43.9198 1.78894 40.9299L1.79285 40.926L30.4667 7.99144L30.6913 7.73265L30.8124 7.72679C30.8218 7.72074 30.8318 7.71508 30.8417 7.70921L30.8456 7.70628L30.9354 7.60765L44.1991 0.26292ZM35.0223 52.1116C35.0683 51.9364 35.1461 51.7726 35.2421 51.6272L48.9686 35.9612C49.3499 35.5762 49.8588 35.448 50.3671 35.5764C50.4002 35.5876 50.4328 35.6026 50.4657 35.6194C50.4559 35.6144 50.4472 35.6073 50.4374 35.6028L50.3661 35.5744C49.8579 35.4461 49.3489 35.5744 48.9677 35.9592L35.2411 51.6252L35.1522 51.7756C35.0969 51.8809 35.0531 51.994 35.0223 52.1116ZM48.5868 40.1994V51.2395H39.0575L39.0555 51.2414H48.5878V40.1985L48.5868 40.1994ZM40.8026 50.4397H47.787V42.3469L40.8026 50.4397ZM9.95594 48.302C8.50146 49.9111 6.08876 50.0211 4.50183 48.6799C4.04089 48.2158 3.71528 47.6563 3.52527 47.0578C3.71522 47.6571 4.04131 48.2172 4.50281 48.6819C6.08974 50.0231 8.50243 49.913 9.95691 48.3039L12.7391 45.091L12.7372 45.0891L9.95594 48.302ZM4.87097 43.676L4.77429 43.7981C3.81904 45.0752 3.93035 46.943 5.04578 48.091C6.309 49.1347 8.21015 49.0401 9.36219 47.7659L11.619 45.1584L7.1073 41.093L4.87097 43.676ZM46.0067 1.14769C45.6087 0.780671 44.9679 0.681765 44.5985 0.955303L31.4393 8.24241L31.3182 8.3762C31.1918 8.38224 31.1965 8.51072 31.0702 8.51683L2.39636 41.4514L2.18836 41.7063C1.52306 42.5642 1.09823 43.5507 0.911013 44.5686C1.11713 43.4488 1.61243 42.3678 2.39734 41.4534L31.0712 8.51878C31.1976 8.51273 31.1928 8.3842 31.3192 8.37815L31.4403 8.24437L44.5995 0.957256C44.9688 0.683543 45.6096 0.782512 46.0077 1.14964C46.1066 1.24089 46.1905 1.34084 46.2567 1.44749C46.1903 1.34011 46.1062 1.23946 46.0067 1.14769ZM14.4345 43.2131L8.73426 38.0764L14.4354 43.2151L37.9091 16.303L37.9071 16.301L14.4345 43.2131ZM9.85242 38.008L14.3661 42.0744L36.787 16.3684L32.2743 12.302L9.85242 38.008ZM42.7372 4.89964L39.2011 13.928L34.2968 9.52659L39.202 13.9299L42.7401 4.89866L42.7372 4.89964ZM35.6698 9.68382L38.8759 12.5617L41.1893 6.65843L35.6698 9.68382Z" fill="black"/>
</svg>
